<svg width="180" height="180" viewBox="0 0 180 180" fill="none" xmlns="http://www.w3.org/2000/svg">
<rect width="180" height="180" fill="#2E2E2E"/>
<path d="M46.9408 134.264C33.1424 134.264 25.2576 129.605 26.96 118.405L28.8416 104.517C30.096 96.5424 25.3472 94.5712 18.8064 94.5712V90.0016C25.3472 90.0016 30.096 87.9408 28.9312 80.2352L26.96 65.8992C25.168 54.52 33.3216 50.04 46.9408 50.04V54.6992C38.16 54.6992 34.9344 57.4768 35.6512 65.272L36.7264 78.0848C37.4432 86.0592 33.3216 90.2704 24.72 92.3312C33.3216 94.392 37.4432 98.6032 36.7264 106.667L35.6512 119.301C34.9344 127.006 38.4288 129.605 46.9408 129.605V134.264ZM75.5267 116.165C71.9427 116.165 69.2547 113.566 69.2547 110.162C69.2547 106.667 71.9427 104.069 75.5267 104.069C78.8419 104.069 81.5299 106.667 81.5299 110.162C81.5299 113.566 78.8419 116.165 75.5267 116.165ZM69.2547 79.8768C69.2547 76.3824 71.9427 73.784 75.5267 73.784C78.8419 73.784 81.5299 76.3824 81.5299 79.8768C81.5299 83.2816 78.8419 85.88 75.5267 85.88C71.9427 85.88 69.2547 83.2816 69.2547 79.8768ZM86.7939 134.712L83.1203 130.859C94.5891 122.258 102.205 109.714 102.205 92.152C102.205 74.7696 94.5891 62.2256 83.1203 53.4448L86.7939 49.592C100.324 59.8064 110.986 73.8736 110.986 92.152C110.986 110.61 100.324 124.766 86.7939 134.712ZM131.399 134.264V129.605C139.911 129.605 143.406 127.006 142.689 119.301L141.614 106.667C140.897 98.6032 145.019 94.392 153.62 92.3312C145.019 90.2704 140.897 86.0592 141.614 78.0848L142.689 65.272C143.406 57.4768 140.18 54.6992 131.399 54.6992V50.04C145.019 50.04 153.172 54.52 151.38 65.8992L149.409 80.2352C148.244 87.9408 152.993 90.0016 159.534 90.0016V94.5712C152.993 94.5712 148.244 96.5424 149.499 104.517L151.38 118.405C153.083 129.605 145.198 134.264 131.399 134.264Z" fill="white"/>
</svg>
